#Comment line ignore any data following # character 
#Hierarchical Translation and Rotation (.htr) file 
[Header]	
#Header keywords are followed by a single value 
FileType HTR		#Single word string
DataType HTRS		#Translation followed by rotation and scale data
FileVersion 1		#integer
NumSegments 84		#integer
NumFrames 2		#integer
DataFrameRate 30		#integer, data frame rate in this file
EulerRotationOrder ZYX
CalibrationUnits mm
RotationUnits Degrees
GlobalAxisofGravity Y
BoneLengthAxis Y
ScaleFactor 1.00
[SegmentNames&Hierarchy]
#CHILD	PARENT
MASTER GLOBAL
root MASTER
chest root
L_mid_tent01 root
R_mid_tent01 root
spine01 root
Bip01_Neck chest
L_humerus chest
R_humerus chest
weapon_bone chest
Bip01_Head Bip01_Neck
eye_left_bone Bip01_Head
eye_right_bone Bip01_Head
L_forearm L_humerus
L_front_hand L_forearm
L_weapon_bone L_forearm
L_front_hand01_01 L_front_hand
L_front_hand02_01 L_front_hand
L_front_hand03_01 L_front_hand
L_front_hand01_02 L_front_hand01_01
L_front_hand02_02 L_front_hand02_01
L_front_hand03_02 L_front_hand03_01
R_forearm R_humerus
R_front_hand R_forearm
R_weapon_bone R_forearm
R_front_hand01_01 R_front_hand
R_front_hand02_01 R_front_hand
R_front_hand03_01 R_front_hand
R_front_hand01_02 R_front_hand01_01
R_front_hand02_02 R_front_hand02_01
R_front_hand03_02 R_front_hand03_01
null_rope01_connect L_mid_tent01
Rope1_Seg01 null_rope01_connect
Rope1_Seg02 Rope1_Seg01
Rope1_Seg03 Rope1_Seg02
Rope1_Seg04 Rope1_Seg03
Rope1_Seg05 Rope1_Seg04
Rope1_Seg06 Rope1_Seg05
Rope1_Seg07 Rope1_Seg06
Rope1_Seg09 Rope1_Seg07
L_mid_hand01 Rope1_Seg09
L_mid_hand02 Rope1_Seg09
L_mid_hand03 Rope1_Seg09
null_rope02_connect R_mid_tent01
Rope2_Seg01 null_rope02_connect
Rope2_Seg02 Rope2_Seg01
Rope2_Seg03 Rope2_Seg02
Rope2_Seg04 Rope2_Seg03
Rope2_Seg05 Rope2_Seg04
Rope2_Seg06 Rope2_Seg05
Rope2_Seg07 Rope2_Seg06
Rope2_Seg09 Rope2_Seg07
R_mid_hand01 Rope2_Seg09
R_mid_hand02 Rope2_Seg09
R_mid_hand03 Rope2_Seg09
spine02 spine01
spine03 spine02
pelvis spine03
null_rope03_connect pelvis
null_rope04_connect pelvis
Rope3_Seg01 null_rope03_connect
Rope3_Seg02 Rope3_Seg01
Rope3_Seg03 Rope3_Seg02
Rope3_Seg04 Rope3_Seg03
Rope3_Seg05 Rope3_Seg04
Rope3_Seg06 Rope3_Seg05
Rope3_Seg07 Rope3_Seg06
Rope3_Seg08 Rope3_Seg07
Rope3_Seg09 Rope3_Seg08
R_rear_hand01 Rope3_Seg09
R_rear_hand02 Rope3_Seg09
R_rear_hand03 Rope3_Seg09
Rope4_Seg01 null_rope04_connect
Rope4_Seg02 Rope4_Seg01
Rope4_Seg03 Rope4_Seg02
Rope4_Seg04 Rope4_Seg03
Rope4_Seg05 Rope4_Seg04
Rope4_Seg06 Rope4_Seg05
Rope4_Seg07 Rope4_Seg06
Rope4_Seg08 Rope4_Seg07
Rope4_Seg09 Rope4_Seg08
L_rear_hand01 Rope4_Seg09
L_rear_hand02 Rope4_Seg09
L_rear_hand03 Rope4_Seg09
[BasePosition]
#SegmentName Tx, Ty, Tz, Rx, Ry, Rz, BoneLength
MASTER 0.000000 0.000000 0.000000 -90.000000 0.000000 0.000000 10.000000 
root 0.000000 0.000000 0.000000 0.000000 0.000000 0.000000 10.000000 
chest 0.000000 0.000000 0.000000 0.000000 0.000000 0.000000 10.000000 
L_mid_tent01 0.000000 0.000000 0.000000 0.000000 0.000000 0.000000 10.000000 
R_mid_tent01 0.000000 0.000000 0.000000 0.000000 0.000000 0.000000 10.000000 
spine01 0.000000 0.000000 0.000000 0.000000 0.000000 0.000000 10.000000 
Bip01_Neck 0.000000 0.000000 0.000000 0.000000 0.000000 0.000000 10.000000 
L_humerus 0.000000 0.000000 0.000000 0.000000 0.000000 0.000000 10.000000 
R_humerus 0.000000 0.000000 0.000000 0.000000 0.000000 0.000000 10.000000 
weapon_bone 0.000000 0.000000 0.000000 0.000000 0.000000 0.000000 10.000000 
Bip01_Head 0.000000 0.000000 0.000000 0.000000 0.000000 0.000000 10.000000 
eye_left_bone 0.000000 0.000000 0.000000 0.000000 0.000000 0.000000 10.000000 
eye_right_bone 0.000000 0.000000 0.000000 0.000000 0.000000 0.000000 10.000000 
L_forearm 0.000000 0.000000 0.000000 0.000000 0.000000 0.000000 10.000000 
L_front_hand 0.000000 0.000000 0.000000 0.000000 0.000000 0.000000 10.000000 
L_weapon_bone 0.000000 0.000000 0.000000 0.000000 0.000000 0.000000 10.000000 
L_front_hand01_01 0.000000 0.000000 0.000000 0.000000 0.000000 0.000000 10.000000 
L_front_hand02_01 0.000000 0.000000 0.000000 0.000000 0.000000 0.000000 10.000000 
L_front_hand03_01 0.000000 0.000000 0.000000 0.000000 0.000000 0.000000 10.000000 
L_front_hand01_02 0.000000 0.000000 0.000000 0.000000 0.000000 0.000000 10.000000 
L_front_hand02_02 0.000000 0.000000 0.000000 0.000000 0.000000 0.000000 10.000000 
L_front_hand03_02 0.000000 0.000000 0.000000 0.000000 0.000000 0.000000 10.000000 
R_forearm 0.000000 0.000000 0.000000 0.000000 0.000000 0.000000 10.000000 
R_front_hand 0.000000 0.000000 0.000000 0.000000 0.000000 0.000000 10.000000 
R_weapon_bone 0.000000 0.000000 0.000000 0.000000 0.000000 0.000000 10.000000 
R_front_hand01_01 0.000000 0.000000 0.000000 0.000000 0.000000 0.000000 10.000000 
R_front_hand02_01 0.000000 0.000000 0.000000 0.000000 0.000000 0.000000 10.000000 
R_front_hand03_01 0.000000 0.000000 0.000000 0.000000 0.000000 0.000000 10.000000 
R_front_hand01_02 0.000000 0.000000 0.000000 0.000000 0.000000 0.000000 10.000000 
R_front_hand02_02 0.000000 0.000000 0.000000 0.000000 0.000000 0.000000 10.000000 
R_front_hand03_02 0.000000 0.000000 0.000000 0.000000 0.000000 0.000000 10.000000 
null_rope01_connect 0.000000 0.000000 0.000000 0.000000 0.000000 0.000000 10.000000 
Rope1_Seg01 0.000000 0.000000 0.000000 0.000000 0.000000 0.000000 10.000000 
Rope1_Seg02 0.000000 0.000000 0.000000 0.000000 0.000000 0.000000 10.000000 
Rope1_Seg03 0.000000 0.000000 0.000000 0.000000 0.000000 0.000000 10.000000 
Rope1_Seg04 0.000000 0.000000 0.000000 0.000000 0.000000 0.000000 10.000000 
Rope1_Seg05 0.000000 0.000000 0.000000 0.000000 0.000000 0.000000 10.000000 
Rope1_Seg06 0.000000 0.000000 0.000000 0.000000 0.000000 0.000000 10.000000 
Rope1_Seg07 0.000000 0.000000 0.000000 0.000000 0.000000 0.000000 10.000000 
Rope1_Seg09 0.000000 0.000000 0.000000 0.000000 0.000000 0.000000 10.000000 
L_mid_hand01 0.000000 0.000000 0.000000 0.000000 0.000000 0.000000 10.000000 
L_mid_hand02 0.000000 0.000000 0.000000 0.000000 0.000000 0.000000 10.000000 
L_mid_hand03 0.000000 0.000000 0.000000 0.000000 0.000000 0.000000 10.000000 
null_rope02_connect 0.000000 0.000000 0.000000 0.000000 0.000000 0.000000 10.000000 
Rope2_Seg01 0.000000 0.000000 0.000000 0.000000 0.000000 0.000000 10.000000 
Rope2_Seg02 0.000000 0.000000 0.000000 0.000000 0.000000 0.000000 10.000000 
Rope2_Seg03 0.000000 0.000000 0.000000 0.000000 0.000000 0.000000 10.000000 
Rope2_Seg04 0.000000 0.000000 0.000000 0.000000 0.000000 0.000000 10.000000 
Rope2_Seg05 0.000000 0.000000 0.000000 0.000000 0.000000 0.000000 10.000000 
Rope2_Seg06 0.000000 0.000000 0.000000 0.000000 0.000000 0.000000 10.000000 
Rope2_Seg07 0.000000 0.000000 0.000000 0.000000 0.000000 0.000000 10.000000 
Rope2_Seg09 0.000000 0.000000 0.000000 0.000000 0.000000 0.000000 10.000000 
R_mid_hand01 0.000000 0.000000 0.000000 0.000000 0.000000 0.000000 10.000000 
R_mid_hand02 0.000000 0.000000 0.000000 0.000000 0.000000 0.000000 10.000000 
R_mid_hand03 0.000000 0.000000 0.000000 0.000000 0.000000 0.000000 10.000000 
spine02 0.000000 0.000000 0.000000 0.000000 0.000000 0.000000 10.000000 
spine03 0.000000 0.000000 0.000000 0.000000 0.000000 0.000000 10.000000 
pelvis 0.000000 0.000000 0.000000 0.000000 0.000000 0.000000 10.000000 
null_rope03_connect 0.000000 0.000000 0.000000 0.000000 0.000000 0.000000 10.000000 
null_rope04_connect 0.000000 0.000000 0.000000 0.000000 0.000000 0.000000 10.000000 
Rope3_Seg01 0.000000 0.000000 0.000000 0.000000 0.000000 0.000000 10.000000 
Rope3_Seg02 0.000000 0.000000 0.000000 0.000000 0.000000 0.000000 10.000000 
Rope3_Seg03 0.000000 0.000000 0.000000 0.000000 0.000000 0.000000 10.000000 
Rope3_Seg04 0.000000 0.000000 0.000000 0.000000 0.000000 0.000000 10.000000 
Rope3_Seg05 0.000000 0.000000 0.000000 0.000000 0.000000 0.000000 10.000000 
Rope3_Seg06 0.000000 0.000000 0.000000 0.000000 0.000000 0.000000 10.000000 
Rope3_Seg07 0.000000 0.000000 0.000000 0.000000 0.000000 0.000000 10.000000 
Rope3_Seg08 0.000000 0.000000 0.000000 0.000000 0.000000 0.000000 10.000000 
Rope3_Seg09 0.000000 0.000000 0.000000 0.000000 0.000000 0.000000 10.000000 
R_rear_hand01 0.000000 0.000000 0.000000 0.000000 0.000000 0.000000 10.000000 
R_rear_hand02 0.000000 0.000000 0.000000 0.000000 0.000000 0.000000 10.000000 
R_rear_hand03 0.000000 0.000000 0.000000 0.000000 0.000000 0.000000 10.000000 
Rope4_Seg01 0.000000 0.000000 0.000000 0.000000 0.000000 0.000000 10.000000 
Rope4_Seg02 0.000000 0.000000 0.000000 0.000000 0.000000 0.000000 10.000000 
Rope4_Seg03 0.000000 0.000000 0.000000 0.000000 0.000000 0.000000 10.000000 
Rope4_Seg04 0.000000 0.000000 0.000000 0.000000 0.000000 0.000000 10.000000 
Rope4_Seg05 0.000000 0.000000 0.000000 0.000000 0.000000 0.000000 10.000000 
Rope4_Seg06 0.000000 0.000000 0.000000 0.000000 0.000000 0.000000 10.000000 
Rope4_Seg07 0.000000 0.000000 0.000000 0.000000 0.000000 0.000000 10.000000 
Rope4_Seg08 0.000000 0.000000 0.000000 0.000000 0.000000 0.000000 10.000000 
Rope4_Seg09 0.000000 0.000000 0.000000 0.000000 0.000000 0.000000 10.000000 
L_rear_hand01 0.000000 0.000000 0.000000 0.000000 0.000000 0.000000 10.000000 
L_rear_hand02 0.000000 0.000000 0.000000 0.000000 0.000000 0.000000 10.000000 
L_rear_hand03 0.000000 0.000000 0.000000 0.000000 0.000000 0.000000 10.000000 
#Beginning of Data. Separated by tabs
#Fr	Tx	Ty	Tz	Rx	Ry	Rz	SF
[MASTER]
28 0.000000 0.000000 0.000000 0.001660 0.001660 0.001660 0.000000
29 0.000000 0.000000 0.000000 0.001660 0.001660 0.001660 0.000000
[root]
28 -94.800407 -63.410290 1056.917603 -91.333130 -26.623812 -90.808205 1063.053467
29 -91.436836 -63.525826 1046.150391 -91.282333 -26.023144 -90.898964 1052.058472
[chest]
28 -84.512650 -34.090519 0.000000 -3.419779 -1.808330 173.928116 91.129311
29 -84.512650 -34.090519 0.000000 -3.543054 -1.661483 171.277267 91.129311
[L_mid_tent01]
28 27.299528 22.177385 -249.918015 -18.220873 23.473745 -19.065664 252.380890
29 27.299528 22.177380 -249.918015 -17.247675 21.151678 -23.614523 252.380890
[R_mid_tent01]
28 23.228794 24.509907 226.238495 -158.243225 -12.371237 -15.321697 228.744751
29 23.228794 24.509907 226.238495 -159.906174 -4.246666 -21.363180 228.744751
[spine01]
28 -0.361383 -0.195265 0.000000 -0.154193 0.361280 11.887936 0.410763
29 -0.361383 -0.195265 0.000000 -0.201885 0.354208 11.751690 0.410763
[Bip01_Neck]
28 165.484543 71.581718 0.000119 175.896118 1.177290 24.871183 180.302734
29 165.484543 71.581718 0.000119 175.896118 1.177290 24.871183 180.302734
[L_humerus]
28 -13.983130 -135.272980 -120.471481 -83.105042 0.750836 -160.774536 181.680161
29 -13.983130 -135.272980 -120.471481 -84.456444 0.686333 -157.730881 181.680161
[R_humerus]
28 -13.983309 -135.273102 125.287651 94.950310 0.134531 -166.294907 184.909012
29 -13.983309 -135.273102 125.287651 96.182373 -0.214007 -163.439713 184.909012
[weapon_bone]
28 235.964890 -300.705902 0.000000 0.000000 -89.951546 -128.212341 382.234833
29 235.964890 -300.705902 0.000000 0.000000 -89.951546 -128.212341 382.234833
[Bip01_Head]
28 226.371338 178.304398 -3.011462 3.096712 3.201309 -54.000362 288.176178
29 222.493515 182.779724 -6.636616 4.490897 3.914841 -55.996193 288.020538
[eye_left_bone]
28 -24.626970 125.451866 -64.772606 0.000000 -90.000000 -99.840431 143.318359
29 -24.626970 125.451866 -64.772606 0.000000 -90.000000 -99.840431 143.318359
[eye_right_bone]
28 -24.626970 125.451866 64.327362 0.000000 -89.960434 80.159386 143.117676
29 -24.626970 125.451866 64.327362 0.000000 -89.960434 80.159386 143.117676
[L_forearm]
28 322.776093 0.000000 -0.000119 0.000080 0.002346 -86.086319 322.776093
29 322.776093 0.000000 -0.000119 0.000069 0.002346 -86.610771 322.776093
[L_front_hand]
28 241.149185 -0.042021 -3.300071 -177.901703 -0.861513 -58.938721 241.171753
29 241.149185 -0.042021 -3.300071 -177.851685 -0.727068 -62.635384 241.171753
[L_weapon_bone]
28 156.183838 0.000000 0.000000 0.001747 0.001567 6.221459 156.183838
29 156.183838 0.000000 0.000000 0.001723 0.001594 4.463809 156.183838
[L_front_hand01_01]
28 86.095154 20.947098 -0.655860 0.405585 -0.442306 -4.620490 88.609184
29 86.095154 20.947098 -0.655860 0.405585 -0.442306 -4.620490 88.609184
[L_front_hand02_01]
28 86.935165 -11.437475 24.513514 116.959450 3.630817 1.495453 91.046425
29 86.935165 -11.437475 24.513514 116.959450 3.630818 1.495453 91.046425
[L_front_hand03_01]
28 86.637497 -14.123976 -20.424902 -118.420097 -4.656303 -0.152527 90.126129
29 86.637497 -14.123976 -20.424902 -118.420097 -4.656303 -0.152527 90.126129
[L_front_hand01_02]
28 71.020905 -0.000179 0.000030 0.001534 0.001777 -8.378850 71.020905
29 71.020905 -0.000179 0.000030 0.001534 0.001777 -8.378848 71.020905
[L_front_hand02_02]
28 71.020927 -0.000119 0.000060 0.001534 0.001777 -8.378850 71.020927
29 71.020927 -0.000119 0.000060 0.001534 0.001777 -8.378848 71.020927
[L_front_hand03_02]
28 71.020905 -0.000060 0.000060 0.001534 0.001777 -8.378850 71.020905
29 71.020905 -0.000060 0.000060 0.001534 0.001777 -8.378848 71.020905
[R_forearm]
28 322.776428 -0.000060 0.000030 0.206071 -0.047099 -78.180519 322.776428
29 322.776428 -0.000060 0.000030 0.207590 -0.044993 -78.770470 322.776428
[R_front_hand]
28 238.847015 -0.006795 2.210259 -1.694847 -0.341609 -90.129837 238.857239
29 238.847015 -0.006795 2.210259 -1.691968 -0.354811 -90.567047 238.857239
[R_weapon_bone]
28 155.664093 0.002503 -0.000030 0.003382 0.001453 -100.120857 155.664078
29 155.664093 0.002503 -0.000030 0.003413 0.001378 -97.581421 155.664078
[R_front_hand01_01]
28 87.624611 14.231146 22.918642 -116.960213 3.496675 -1.324139 91.683487
29 87.624611 14.231146 22.918642 -116.960213 3.496675 -1.324139 91.683487
[R_front_hand02_01]
28 89.356956 14.367283 -19.491137 118.419647 -4.257089 0.609827 92.579636
29 89.356956 14.367283 -19.491137 118.419647 -4.257089 0.609827 92.579636
[R_front_hand03_01]
28 87.286232 -22.307278 -0.143439 -0.387970 -0.231462 4.232001 90.091743
29 87.286232 -22.307278 -0.143439 -0.387970 -0.231462 4.232001 90.091743
[R_front_hand01_02]
28 71.020905 0.000060 0.000119 0.001777 0.001534 8.377220 71.020905
29 71.020905 0.000060 0.000119 0.001777 0.001534 8.377220 71.020905
[R_front_hand02_02]
28 71.020844 -0.000030 -0.000119 0.001777 0.001534 8.377220 71.020836
29 71.020844 -0.000030 -0.000119 0.001777 0.001534 8.377220 71.020836
[R_front_hand03_02]
28 71.020905 0.000000 0.000030 0.001777 0.001534 8.377220 71.020905
29 71.020905 0.000000 0.000030 0.001777 0.001534 8.377220 71.020905
[null_rope01_connect]
28 328.732483 0.000000 -0.000238 -86.151375 -59.306965 -141.632584 328.732483
29 328.732483 0.000000 -0.000238 -83.629845 -61.665722 -139.653229 328.732483
[Rope1_Seg01]
28 0.000000 0.000000 0.000000 78.272758 -44.649273 -152.149109 0.000000
29 0.000000 0.000000 0.000000 74.784164 -39.242512 -147.257126 0.000000
[Rope1_Seg02]
28 139.999863 -0.000179 0.000000 -3.213819 12.824632 -3.531484 139.999863
29 139.999863 -0.000179 0.000000 -4.751825 13.645176 -3.154704 139.999863
[Rope1_Seg03]
28 139.999924 0.000060 -0.000060 -10.325514 20.721464 -4.738097 139.999924
29 139.999924 0.000060 -0.000060 -12.545158 19.793150 -3.048955 139.999924
[Rope1_Seg04]
28 139.999924 -0.000060 -0.000119 -37.084190 32.693932 -1.919899 139.999924
29 139.999924 -0.000060 -0.000119 -38.599491 30.754433 1.673272 139.999924
[Rope1_Seg05]
28 139.999832 0.000119 -0.000060 -32.679768 19.277992 13.388760 139.999832
29 139.999832 0.000119 -0.000060 -25.069868 13.631737 12.660469 139.999832
[Rope1_Seg06]
28 139.999954 0.000119 -0.000060 1.370698 -0.481662 -0.943852 139.999954
29 139.999954 0.000119 -0.000060 7.176408 -2.549299 -4.719494 139.999954
[Rope1_Seg07]
28 139.999985 0.000060 0.000000 19.665598 -5.274201 -12.145879 139.999985
29 139.999985 0.000060 0.000000 26.656742 -9.099911 -14.918972 139.999985
[Rope1_Seg09]
28 121.602913 0.000119 -0.000089 -89.793175 -1.359789 0.847147 121.602913
29 121.602913 0.000119 -0.000089 -89.793175 -1.359789 0.847147 121.602913
[L_mid_hand01]
28 103.859421 1.038730 8.195221 105.621002 -22.988335 -6.761935 104.187431
29 103.859421 1.038730 8.195221 105.620987 -22.988335 -6.761933 104.187431
[L_mid_hand02]
28 105.572853 -4.139662 -10.864139 -139.491974 20.327143 -21.528740 106.211075
29 105.572853 -4.139662 -10.864139 -139.491974 20.327143 -21.528740 106.211075
[L_mid_hand03]
28 104.641464 17.579376 -3.913581 -17.354424 7.254999 25.905664 106.179977
29 104.641464 17.579376 -3.913581 -17.354424 7.254999 25.905664 106.179977
[null_rope02_connect]
28 328.732849 0.000179 -0.000119 -108.326660 66.835205 -57.739319 328.732849
29 328.732849 0.000179 -0.000119 -120.508102 71.323387 -77.092972 328.732849
[Rope2_Seg01]
28 0.000071 0.000108 0.000021 30.985048 -49.930927 -49.232246 0.000131
29 0.000075 0.000109 0.000017 31.668903 -46.414005 -49.721272 0.000133
[Rope2_Seg02]
28 139.999741 -0.000060 -0.000119 3.181388 12.242402 -14.125690 139.999756
29 139.999741 -0.000060 -0.000119 3.609329 10.547771 -12.687407 139.999756
[Rope2_Seg03]
28 140.000107 0.000030 0.000000 16.056435 16.077772 -21.993563 140.000107
29 140.000107 0.000030 0.000000 14.228422 13.314153 -19.282848 140.000107
[Rope2_Seg04]
28 139.999802 0.000000 -0.000060 53.032356 8.531829 -25.392239 139.999802
29 139.999802 0.000000 -0.000060 53.290756 9.305272 -27.343351 139.999802
[Rope2_Seg05]
28 139.999985 -0.000060 0.000119 2.939045 -2.143615 -0.464036 139.999985
29 139.999985 -0.000060 0.000119 8.240776 -2.625009 -2.925522 139.999985
[Rope2_Seg06]
28 139.999893 -0.000030 -0.000119 -16.037867 3.105621 6.648339 139.999893
29 139.999893 -0.000030 -0.000119 -21.520741 6.373181 7.494635 139.999893
[Rope2_Seg07]
28 139.999893 0.000060 -0.000060 -3.324615 -0.124921 1.776646 139.999893
29 139.999893 0.000060 -0.000060 -9.557731 1.333286 4.164545 139.999893
[Rope2_Seg09]
28 121.338966 0.000089 -0.000060 33.793236 -1.359788 -0.847141 121.338966
29 121.338966 0.000089 -0.000060 33.793236 -1.359788 -0.847141 121.338966
[R_mid_hand01]
28 104.680779 11.144459 -10.335981 -44.070728 19.764444 21.986286 105.778534
29 104.680779 11.144459 -10.335981 -44.070736 19.764444 21.986286 105.778534
[R_mid_hand02]
28 104.070427 2.443552 8.231699 74.148849 -24.768812 7.320621 104.424065
29 104.070427 2.443552 8.231699 74.148849 -24.768806 7.320621 104.424065
[R_mid_hand03]
28 106.028137 -11.221827 -5.996406 -166.566208 8.416404 -28.789036 106.788818
29 106.028137 -11.221827 -5.996406 -166.566208 8.416404 -28.789036 106.788818
[spine02]
28 129.756927 0.001550 0.000119 -0.079656 -4.009704 -6.732536 129.756927
29 129.756927 0.001550 0.000119 -0.071525 -3.991834 -6.853874 129.756927
[spine03]
28 78.988297 0.022100 -1.242954 1.908999 -1.442470 18.264193 78.998077
29 79.009209 0.018473 -1.038888 1.919176 -1.711022 19.246235 79.016037
[pelvis]
28 169.435242 0.051022 0.000000 0.007192 2.374858 -3.811224 169.435257
29 169.435242 0.051022 0.000000 0.005776 2.491177 -3.906987 169.435257
[null_rope03_connect]
28 -1.257226 -2.466202 137.391083 121.638924 -88.720985 -24.760790 137.418976
29 -1.257226 -2.466202 137.391083 119.790985 -88.692238 -24.171846 137.418976
[null_rope04_connect]
28 -1.259640 -2.480268 -137.844437 121.638924 -88.720985 -24.760790 137.872513
29 -1.259640 -2.480268 -137.844437 119.790985 -88.692238 -24.171846 137.872513
[Rope3_Seg01]
28 0.000000 0.000000 0.000000 -141.889786 -43.578175 -67.223259 0.000000
29 0.000000 0.000000 0.000000 -138.329834 -41.586639 -71.772949 0.000000
[Rope3_Seg02]
28 139.999924 -0.000119 0.000060 0.839236 -1.605903 2.008097 139.999924
29 139.999924 -0.000119 0.000060 0.639433 -1.443985 1.991949 139.999924
[Rope3_Seg03]
28 139.999924 -0.000119 0.000119 1.020072 -2.110554 2.733510 139.999924
29 139.999924 -0.000119 0.000119 0.740275 -1.870654 2.641105 139.999924
[Rope3_Seg04]
28 139.999924 0.000119 0.000000 1.125081 -3.060686 2.965302 139.999924
29 139.999924 0.000119 0.000000 0.709440 -2.765119 1.834885 139.999924
[Rope3_Seg05]
28 139.999924 -0.000238 0.000060 1.781283 -5.066752 4.910208 139.999924
29 139.999924 -0.000238 0.000060 1.268575 -4.135363 5.109725 139.999924
[Rope3_Seg06]
28 139.999893 -0.000119 -0.000060 1.617879 -3.671759 17.547222 139.999893
29 139.999893 -0.000119 -0.000060 0.860977 -1.811160 18.388664 139.999893
[Rope3_Seg07]
28 139.999771 0.000060 -0.000119 -0.422354 -1.683958 14.853490 139.999771
29 139.999771 0.000060 -0.000119 -0.802662 -0.823865 12.829323 139.999771
[Rope3_Seg08]
28 139.999985 -0.000060 0.000000 -0.898081 -1.411513 8.215611 139.999985
29 139.999985 -0.000060 0.000000 -0.853710 -0.799551 6.837073 139.999985
[Rope3_Seg09]
28 90.185997 -0.000179 -0.000060 89.793228 -1.359877 -0.847183 90.185997
29 90.185997 -0.000179 -0.000060 89.793228 -1.359877 -0.847183 90.185997
[R_rear_hand01]
28 103.366196 -6.073594 -10.757982 -160.090088 14.865477 -24.717993 104.101845
29 103.366196 -6.073594 -10.757982 -160.090088 14.865479 -24.717995 104.101845
[R_rear_hand02]
28 100.509819 12.039542 -7.992327 -35.711582 16.148796 24.170401 101.543350
29 100.509819 12.039542 -7.992327 -35.711582 16.148796 24.170401 101.543350
[R_rear_hand03]
28 101.539970 5.215704 5.435467 83.699936 -25.497601 6.583544 101.819031
29 101.539970 5.215704 5.435467 83.699936 -25.497597 6.583542 101.819031
[Rope4_Seg01]
28 0.000010 0.000038 -0.000114 64.145576 -40.657532 -124.060814 0.000121
29 0.000010 0.000038 -0.000114 64.495079 -37.087196 -127.613205 0.000121
[Rope4_Seg02]
28 139.999985 0.000060 0.000119 -2.067780 7.156391 -1.550111 139.999985
29 139.999985 0.000060 0.000119 -1.955021 9.849025 0.106250 139.999985
[Rope4_Seg03]
28 139.999924 0.000000 -0.000238 -1.659949 8.322313 -1.502797 139.999924
29 139.999924 0.000000 -0.000238 -1.130706 10.610861 0.482781 139.999924
[Rope4_Seg04]
28 139.999985 0.000000 0.000119 -0.699592 8.097815 -0.310656 139.999985
29 139.999985 0.000000 0.000119 -0.079086 10.096698 1.896323 139.999985
[Rope4_Seg05]
28 139.999802 -0.000060 -0.000119 -0.239967 8.658710 -0.636504 139.999802
29 139.999802 -0.000060 -0.000119 0.330775 9.268299 0.693367 139.999802
[Rope4_Seg06]
28 139.999924 0.000000 0.000060 0.392429 11.966999 -4.483649 139.999924
29 139.999924 0.000000 0.000060 1.028919 8.349647 -2.234317 139.999924
[Rope4_Seg07]
28 139.999802 0.000000 0.000000 1.930647 11.630976 -5.885272 139.999802
29 139.999802 0.000000 0.000000 1.672838 6.856350 -3.213552 139.999802
[Rope4_Seg08]
28 139.999924 0.000000 0.000119 0.298799 6.434947 -3.087782 139.999924
29 139.999924 0.000000 0.000119 -0.294277 4.371199 -1.529060 139.999924
[Rope4_Seg09]
28 90.185791 0.000060 0.000060 -135.617828 2.228885 0.850567 90.185791
29 90.185791 0.000060 0.000060 -135.617828 2.228885 0.850567 90.185791
[L_rear_hand01]
28 101.696655 -8.392275 -7.654577 -36.242050 -14.765300 157.809067 102.329041
29 101.696655 -8.392275 -7.654577 -36.242058 -14.765300 157.809067 102.329041
[L_rear_hand02]
28 102.726799 -1.568258 5.773216 83.814369 23.151869 173.698151 102.900848
29 102.726799 -1.568258 5.773216 83.814362 23.151863 173.698151 102.900848
[L_rear_hand03]
28 104.552910 9.721220 -10.420293 -159.518845 -14.052428 -157.569275 105.519653
29 104.552910 9.721220 -10.420293 -159.518845 -14.052428 -157.569275 105.519653
